<svg xmlns="http://www.w3.org/2000/svg" width="200" height="200" viewBox="0 0 200 200" opacity="0.04">
  <g fill="none" stroke="#FF8C00" stroke-width="0.5">
    <circle cx="100" cy="100" r="90"/>
    <circle cx="100" cy="100" r="75"/>
    <circle cx="100" cy="100" r="60"/>
    <circle cx="100" cy="100" r="45"/>
    <circle cx="100" cy="100" r="30"/>
    <circle cx="100" cy="100" r="15"/>
    <!-- Petals -->
    <path d="M100,10 Q130,50 100,100 Q70,50 100,10"/>
    <path d="M190,100 Q150,130 100,100 Q150,70 190,100"/>
    <path d="M100,190 Q70,150 100,100 Q130,150 100,190"/>
    <path d="M10,100 Q50,70 100,100 Q50,130 10,100"/>
    <!-- Diagonal petals -->
    <path d="M163,37 Q140,80 100,100 Q120,60 163,37"/>
    <path d="M163,163 Q120,140 100,100 Q140,120 163,163"/>
    <path d="M37,163 Q60,120 100,100 Q80,140 37,163"/>
    <path d="M37,37 Q80,60 100,100 Q60,80 37,37"/>
    <!-- Inner decoration -->
    <polygon points="100,55 115,85 145,90 122,110 128,140 100,125 72,140 78,110 55,90 85,85"/>
  </g>
</svg>
